M48
;GenerationSoftware,Autodesk,EAGLE,9.2.1*%
;CreationDate,2020-05-13T20:51:30Z*%
FMAT,2
ICI,OFF
METRIC,TZ,000.000
T12C0.300
T11C0.650
T10C0.813
T9C1.016
T8C1.092
T7C1.707
T6C1.753
T5C2.311
T4C3.048
T3C3.200
T2C3.988
T1C4.089
%
G90
M71
T1
X90487Y90487
X195262Y114300
X219075Y52387
X347663Y71438
X109537Y114300
X238125Y52387
X223837Y114300
X276225Y71438
X269088Y52387
X52387Y114300
X242887Y114300
X26200Y33338
X21438Y52387
X347663Y14287
X57150Y33338
X261937Y114300
X40488Y14287
X76200Y33338
X71438Y114300
X280988Y114300
X14287Y90487
X95250Y33338
X47625Y52387
X33338Y90487
X66675Y52387
X114300Y33338
X52387Y90487
X90487Y114300
X347663Y114300
X71438Y90487
X133350Y33338
X309563Y90487
X85725Y52387
X104775Y52387
X152400Y33338
X109537Y90487
X38100Y33338
X309563Y71438
X128587Y90487
X171450Y33338
X123825Y52387
X147638Y90487
X138113Y114300
X190500Y33338
X166688Y90487
X309563Y14287
X142875Y52387
X185737Y90487
X209550Y33338
X157163Y114300
X204787Y90487
X309563Y114300
X228600Y33338
X223837Y90487
X161925Y52387
X16675Y33338
X242887Y90487
X264325Y33338
X328613Y90487
X271463Y90487
X180975Y52387
X16675Y14287
X19050Y71438
X176212Y114300
X328613Y71438
X42863Y71438
X200025Y52387
X61912Y71438
X64300Y14287
X80963Y71438
X328613Y33338
X100012Y71438
X135738Y14287
X119062Y71438
X328613Y14287
X230988Y14287
X138113Y71438
X157163Y71438
X254800Y14287
X328613Y114300
X176212Y71438
X183363Y14287
X278613Y14287
X195262Y71438
X159550Y14287
X347663Y90487
X214312Y71438
X207175Y14287
X111925Y14287
X233362Y71438
X88113Y14287
X14287Y114300
X252412Y71438
T2
X259524Y82233
X283401Y82233
X14262Y25082
X38138Y25082
X276263Y25082
X257150Y44132
X252387Y25082
X281026Y44132
X186538Y6032
X84938Y6032
T3
X291000Y33000
X5000Y64000
X291000Y91000
X291000Y33000
X357000Y123500
X5000Y64000
X357000Y5000
X5000Y123500
X5000Y5000
X5000Y123500
X5000Y5000
X357000Y5000
X357000Y123500
X291000Y91000
T4
X276263Y40323
X38138Y40323
X252387Y40323
X84938Y21273
X259524Y97472
X283401Y97472
X281026Y59372
X186538Y21273
X14262Y40323
X257150Y59372
T5
X117434Y119000
X44566Y119000
X31434Y119000
X130566Y119000
X203434Y119000
X216566Y119000
T6
X183515Y57467
X196215Y54927
X202565Y57467
X215265Y54927
X221615Y57467
X234315Y54927
X240665Y57467
X265278Y54927
X271628Y57467
X22390Y35878
X28740Y38418
X53340Y35878
X59690Y38418
X72390Y35878
X78740Y38418
X91440Y35878
X97790Y38418
X110490Y35878
X116840Y38418
X129540Y35878
X135890Y38418
X148590Y35878
X154940Y38418
X167640Y35878
X173990Y38418
X186690Y35878
X193040Y38418
X205740Y35878
X212090Y38418
X224790Y35878
X231140Y38418
X260515Y35878
X266865Y38418
X12865Y16828
X19215Y19368
X36678Y16828
X43028Y19368
X60490Y16828
X66840Y19368
X131928Y16828
X138278Y19368
X227178Y16828
X233528Y19368
X250990Y16828
X257340Y19368
X274803Y16828
X281153Y19368
X203365Y16828
X209715Y19368
X10478Y116840
X16828Y119380
X48577Y116840
X54927Y119380
X67628Y116840
X73978Y119380
X86678Y116840
X93027Y119380
X105727Y116840
X112077Y119380
X134303Y116840
X140653Y119380
X153353Y116840
X159703Y119380
X172403Y116840
X178752Y119380
X191452Y116840
X197802Y119380
X220027Y116840
X226377Y119380
X239077Y116840
X245427Y119380
X258127Y116840
X264478Y119380
X277178Y116840
X283528Y119380
X305753Y93027
X312103Y95567
X305753Y73978
X312103Y76518
X305753Y16828
X312103Y19368
X305753Y116840
X312103Y119380
X324803Y93027
X331153Y95567
X324803Y73978
X331153Y76518
X324803Y35878
X331153Y38418
X324803Y16828
X331153Y19368
X324803Y116840
X331153Y119380
X343853Y93027
X350202Y95567
X343853Y73978
X350202Y76518
X343853Y16828
X350202Y19368
X343853Y116840
X350202Y119380
X34290Y35878
X40640Y38418
X12865Y35878
X19215Y38418
X84303Y16828
X90653Y19368
X108115Y16828
X114465Y19368
X155740Y16828
X162090Y19368
X179553Y16828
X185903Y19368
X10478Y93027
X16828Y95567
X29527Y93027
X35878Y95567
X48577Y93027
X54927Y95567
X67628Y93027
X73978Y95567
X86678Y93027
X93027Y95567
X105727Y93027
X112077Y95567
X124777Y93027
X131128Y95567
X143828Y93027
X150178Y95567
X162878Y93027
X169228Y95567
X181927Y93027
X188277Y95567
X200977Y93027
X207327Y95567
X220027Y93027
X226377Y95567
X239077Y93027
X245427Y95567
X267653Y93027
X274003Y95567
X15240Y73978
X21590Y76518
X39053Y73978
X45402Y76518
X58102Y73978
X64452Y76518
X77153Y73978
X83503Y76518
X96202Y73978
X102552Y76518
X115252Y73978
X121602Y76518
X134303Y73978
X140653Y76518
X153353Y73978
X159703Y76518
X172403Y73978
X178752Y76518
X191452Y73978
X197802Y76518
X210502Y73978
X216852Y76518
X229552Y73978
X235902Y76518
X248602Y73978
X254952Y76518
X272415Y73978
X278765Y76518
X17628Y54927
X23978Y57467
X43815Y54927
X50165Y57467
X62865Y54927
X69215Y57467
X81915Y54927
X88265Y57467
X100965Y54927
X107315Y57467
X120015Y54927
X126365Y57467
X139065Y54927
X145415Y57467
X158115Y54927
X164465Y57467
X177165Y54927
T7
X133033Y71438
X75883Y71438
X86043Y71438
X94932Y71438
X105092Y71438
X113982Y71438
X124142Y71438
X202095Y14287
X143193Y71438
X152083Y71438
X162243Y71438
X171133Y71438
X181292Y71438
X190182Y71438
X200342Y71438
X209232Y71438
X219392Y71438
X228282Y71438
X238442Y71438
X247332Y71438
X257492Y71438
X271145Y71438
X281305Y71438
X16358Y52387
X26518Y52387
X42545Y52387
X52705Y52387
X61595Y52387
X71755Y52387
X80645Y52387
X90805Y52387
X99695Y52387
X109855Y52387
X118745Y52387
X128905Y52387
X137795Y52387
X147955Y52387
X156845Y52387
X167005Y52387
X175895Y52387
X186055Y52387
X194945Y52387
X205105Y52387
X213995Y52387
X224155Y52387
X233045Y52387
X243205Y52387
X264008Y52387
X274168Y52387
X21120Y33338
X31280Y33338
X52070Y33338
X62230Y33338
X71120Y33338
X81280Y33338
X90170Y33338
X100330Y33338
X109220Y33338
X119380Y33338
X128270Y33338
X138430Y33338
X147320Y33338
X157480Y33338
X166370Y33338
X176530Y33338
X185420Y33338
X195580Y33338
X283693Y14287
X204470Y33338
X214630Y33338
X223520Y33338
X233680Y33338
X259245Y33338
X269405Y33338
X11595Y14287
X21755Y14287
X35408Y14287
X45568Y14287
X59220Y14287
X69380Y14287
X130658Y14287
X140818Y14287
X225908Y14287
X236068Y14287
X249720Y14287
X259880Y14287
X273533Y14287
X323533Y14287
X333693Y14287
X275908Y114300
X286068Y114300
X188443Y14287
X304483Y90487
X314643Y90487
X304483Y71438
X178283Y14287
X323533Y114300
X164630Y14287
X154470Y14287
X333693Y114300
X117005Y14287
X106845Y14287
X314643Y71438
X304483Y14287
X314643Y14287
X304483Y114300
X314643Y114300
X323533Y90487
X342583Y90487
X93193Y14287
X83033Y14287
X352742Y90487
X342583Y71438
X352742Y71438
X342583Y14287
X352742Y14287
X342583Y114300
X352742Y114300
X33020Y33338
X43180Y33338
X11595Y33338
X21755Y33338
X333693Y90487
X323533Y71438
X333693Y71438
X323533Y33338
X333693Y33338
X267018Y114300
X256857Y114300
X247967Y114300
X237807Y114300
X228917Y114300
X218757Y114300
X200342Y114300
X190182Y114300
X181292Y114300
X171133Y114300
X162243Y114300
X152083Y114300
X143193Y114300
X133033Y114300
X114617Y114300
X104457Y114300
X95567Y114300
X85408Y114300
X76518Y114300
X66358Y114300
X57467Y114300
X47307Y114300
X19368Y114300
X9208Y114300
X212255Y14287
X9208Y90487
X19368Y90487
X28257Y90487
X38418Y90487
X47307Y90487
X57467Y90487
X66358Y90487
X76518Y90487
X85408Y90487
X95567Y90487
X104457Y90487
X114617Y90487
X123507Y90487
X133668Y90487
X142558Y90487
X152718Y90487
X161608Y90487
X171768Y90487
X180657Y90487
X190817Y90487
X199707Y90487
X209867Y90487
X218757Y90487
X228917Y90487
X237807Y90487
X247967Y90487
X266383Y90487
X276543Y90487
X13970Y71438
X24130Y71438
X37783Y71438
X47942Y71438
X56832Y71438
X66993Y71438
T8
X177482Y109220
X127317Y85408
X274955Y66358
X193992Y109220
X196532Y109220
X277495Y66358
X129857Y85408
X222567Y109220
X225107Y109220
X20168Y47307
X241617Y109220
X244157Y109220
X22708Y47307
X260667Y109220
X263208Y109220
X146368Y85408
X46355Y47307
X279718Y109220
X48895Y47307
X148908Y85408
X308293Y85408
X310833Y85408
X65405Y47307
X308293Y66358
X310833Y66358
X67945Y47307
X308293Y9208
X310833Y9208
X165418Y85408
X84455Y47307
X308293Y109220
X310833Y109220
X86995Y47307
X167958Y85408
X327343Y85408
X329883Y85408
X103505Y47307
X327343Y66358
X329883Y66358
X106045Y47307
X327343Y28257
X329883Y28257
X184467Y85408
X122555Y47307
X327343Y9208
X329883Y9208
X125095Y47307
X327343Y109220
X329883Y109220
X141605Y47307
X346393Y85408
X348933Y85408
X144145Y47307
X346393Y66358
X348933Y66358
X203517Y85408
X160655Y47307
X346393Y9208
X348933Y9208
X163195Y47307
X206057Y85408
X346393Y109220
X348933Y109220
X179705Y47307
X36830Y28257
X39370Y28257
X182245Y47307
X15405Y28257
X17945Y28257
X222567Y85408
X198755Y47307
X86843Y9208
X89383Y9208
X201295Y47307
X225107Y85408
X110655Y9208
X113195Y9208
X217805Y47307
X158280Y9208
X160820Y9208
X220345Y47307
X182093Y9208
X184633Y9208
X241617Y85408
X282258Y109220
X187007Y85408
X236855Y47307
X239395Y47307
X244157Y85408
X267818Y47307
X270358Y47307
X270193Y85408
X24930Y28257
X27470Y28257
X272733Y85408
X55880Y28257
X58420Y28257
X17780Y66358
X74930Y28257
X77470Y28257
X20320Y66358
X93980Y28257
X96520Y28257
X13017Y85408
X41593Y66358
X113030Y28257
X115570Y28257
X44132Y66358
X15557Y85408
X132080Y28257
X134620Y28257
X60642Y66358
X151130Y28257
X153670Y28257
X63182Y66358
X170180Y28257
X172720Y28257
X32067Y85408
X79693Y66358
X189230Y28257
X191770Y28257
X82233Y66358
X34608Y85408
X208280Y28257
X210820Y28257
X98742Y66358
X227330Y28257
X229870Y28257
X101282Y66358
X263055Y28257
X265595Y28257
X51117Y85408
X117792Y66358
X15405Y9208
X17945Y9208
X120332Y66358
X53657Y85408
X39218Y9208
X41758Y9208
X136843Y66358
X63030Y9208
X65570Y9208
X139383Y66358
X134468Y9208
X137008Y9208
X70168Y85408
X155893Y66358
X229718Y9208
X232258Y9208
X158433Y66358
X72708Y85408
X253530Y9208
X256070Y9208
X174942Y66358
X277343Y9208
X279883Y9208
X177482Y66358
X205905Y9208
X208445Y9208
X89217Y85408
X193992Y66358
X13017Y109220
X15557Y109220
X196532Y66358
X91757Y85408
X51117Y109220
X53657Y109220
X213042Y66358
X70168Y109220
X72708Y109220
X215582Y66358
X89217Y109220
X91757Y109220
X108267Y85408
X232092Y66358
X108267Y109220
X110807Y109220
X234632Y66358
X110807Y85408
X136843Y109220
X139383Y109220
X251142Y66358
X155893Y109220
X158433Y109220
X253682Y66358
X174942Y109220
T9
X311300Y47890
X311300Y50430
X311300Y52970
X311300Y55510
T10
X306730Y38000
X313730Y38000
X316270Y38000
X311730Y33500
X314270Y33500
X309730Y29000
X312270Y29000
X309270Y38000
X304730Y33500
X307270Y33500
X302730Y29000
X305270Y29000
T11
X292110Y123345
X297890Y123345
T12
X353000Y48000
X349000Y42000
X209000Y104000
X123000Y103000
X39000Y103000
X125000Y104000
X211000Y105000
X287500Y116000
X301900Y113000
X303000Y110000
X303000Y108800
X303000Y106000
X291000Y108000
X289000Y127000
X301000Y127000
X303000Y104800
X287500Y113300
X41500Y112500
X44500Y110000
X31500Y110000
X41500Y117000
X34000Y105000
X35000Y105000
X127500Y112500
X130500Y110000
X117500Y110000
X127500Y117000
X120000Y105000
X121000Y105000
X213500Y112500
X216500Y110000
X203500Y110000
X213500Y117000
X206000Y105000
X207000Y105000
X294300Y45300
X296000Y47000
X294000Y61000
X296000Y63000
X294000Y80000
X296000Y82000
X294000Y96000
X296000Y96000
X294000Y110000
X316500Y45000
X316500Y47000
X321500Y45000
X321500Y47000
X233000Y105000
X233000Y101000
X100000Y103000
X100000Y101000
X81000Y103000
X81000Y101000
X62000Y103000
X62000Y101000
X147000Y104000
X147000Y101000
X166000Y104000
X166000Y101000
X185000Y104000
X185000Y101000
X252000Y105000
X252000Y101000
X271000Y105000
X271000Y101000
X344600Y47000
X37000Y102000
X345800Y56500
X349500Y46500
X357000Y41000
X343000Y50500
X291000Y111600
X356000Y56000
X39000Y109900
X318300Y104000
X317500Y104500
X300500Y49000
X294900Y45900
X357000Y56000
X347600Y47000
X301000Y50000
X300000Y50000
X351000Y47000
X355200Y51400
X211000Y101000
X349500Y39500
X353300Y49500
X307000Y56000
X287500Y117500
X303000Y107400
X352486Y49514
X291000Y109100
X303000Y56000
X351000Y41000
X299000Y105800
X350100Y45900
X294000Y112000
X37000Y109900
X352500Y54500
X356000Y48000
X358000Y56000
X350000Y38000
X356000Y26000
X286100Y106000
X355000Y48000
X285900Y108000
X183000Y6000
X292500Y117000
X357000Y43000
X359000Y56000
X350500Y36500
X295400Y46500
X290500Y109700
X297500Y117000
X125000Y109900
X290486Y110986
X123000Y109900
X291000Y110300
X295000Y120000
X298500Y120500
X353000Y56000
X357000Y48000
X345000Y56500
X342000Y49600
X339100Y48300
X342500Y42000
X299000Y121000
X291000Y121000
X304000Y122000
X286000Y122000
X357000Y38500
X291000Y105000
X346000Y50000
X350000Y50000
X350000Y54000
X346000Y54000
X211000Y109900
X354000Y56000
X353000Y39000
X290500Y112300
X342500Y52600
X342500Y53500
X291500Y120500
X354000Y48000
X355000Y56000
X209000Y109900
X329600Y47500
X342000Y54500
X342500Y47500
X352500Y44500
X352000Y40000
X342500Y44500
M30